<svg width="27" height="26" viewBox="0 0 27 26" fill="none" xmlns="http://www.w3.org/2000/svg">
<rect x="0.112305" width="26" height="26" rx="12.8835" fill="#E7EEFF"/>
<path d="M9.6123 7V8.5M16.6123 7V8.5M7.1123 17.5V10C7.1123 9.60218 7.27034 9.22064 7.55164 8.93934C7.83295 8.65804 8.21448 8.5 8.6123 8.5H17.6123C18.0101 8.5 18.3917 8.65804 18.673 8.93934C18.9543 9.22064 19.1123 9.60218 19.1123 10V17.5M7.1123 17.5C7.1123 17.8978 7.27034 18.2794 7.55164 18.5607C7.83295 18.842 8.21448 19 8.6123 19H17.6123C18.0101 19 18.3917 18.842 18.673 18.5607C18.9543 18.2794 19.1123 17.8978 19.1123 17.5M7.1123 17.5V12.5C7.1123 12.1022 7.27034 11.7206 7.55164 11.4393C7.83295 11.158 8.21448 11 8.6123 11H17.6123C18.0101 11 18.3917 11.158 18.673 11.4393C18.9543 11.7206 19.1123 12.1022 19.1123 12.5V17.5M13.1123 13.5H13.1176V13.5053H13.1123V13.5ZM13.1123 15H13.1176V15.0053H13.1123V15ZM13.1123 16.5H13.1176V16.5053H13.1123V16.5ZM11.6123 15H11.6176V15.0053H11.6123V15ZM11.6123 16.5H11.6176V16.5053H11.6123V16.5ZM10.1123 15H10.1176V15.0053H10.1123V15ZM10.1123 16.5H10.1176V16.5053H10.1123V16.5ZM14.6123 13.5H14.6176V13.5053H14.6123V13.5ZM14.6123 15H14.6176V15.0053H14.6123V15ZM14.6123 16.5H14.6176V16.5053H14.6123V16.5ZM16.1123 13.5H16.1176V13.5053H16.1123V13.5ZM16.1123 15H16.1176V15.0053H16.1123V15Z" stroke="#6C95FD" stroke-width="1.2" stroke-linecap="round" stroke-linejoin="round"/>
</svg>
