<svg width="346" height="249" viewBox="0 0 346 249" fill="none" xmlns="http://www.w3.org/2000/svg">
<g filter="url(#filter0_f_1139_14208)">
<path d="M193.43 132.527C193.43 175.106 158.913 209.624 116.333 209.624C73.7538 209.624 39.2363 175.106 39.2363 132.527C39.2363 89.9472 73.7538 55.4297 116.333 55.4297C158.913 55.4297 193.43 89.9472 193.43 132.527Z" fill="#E0EEFF"/>
</g>
<path d="M281.419 127.71C281.419 106.106 294.365 94.8584 311.924 94.8584C329.564 94.8584 342.51 106.106 342.51 127.71C342.51 149.314 329.564 160.562 311.924 160.562C294.365 160.562 281.419 149.395 281.419 127.71ZM302.538 124.393L301.081 126.577C307.231 129.49 315.484 130.218 323.171 130.218V127.791C315.484 127.791 308.121 126.82 302.538 124.393Z" fill="white"/>
<path fill-rule="evenodd" clip-rule="evenodd" d="M287.95 101.077C294.047 94.8887 302.5 91.8584 311.924 91.8584C321.385 91.8584 329.858 94.8865 335.967 101.075C342.079 107.267 345.51 116.302 345.51 127.71C345.51 139.118 342.079 148.153 335.967 154.345C329.858 160.534 321.385 163.562 311.924 163.562C302.505 163.562 294.052 160.555 287.952 154.375C281.848 148.192 278.419 139.156 278.419 127.71C278.419 116.302 281.849 107.268 287.95 101.077ZM323.171 127.791C315.484 127.791 308.121 126.82 302.538 124.393L301.081 126.577C301.221 126.643 301.362 126.708 301.503 126.772C302.28 127.122 303.087 127.439 303.922 127.725C308.779 129.391 314.533 130.025 320.171 130.179C321.177 130.206 322.179 130.218 323.171 130.218V127.791ZM311.924 94.8584C294.365 94.8584 281.419 106.106 281.419 127.71C281.419 149.395 294.365 160.562 311.924 160.562C329.564 160.562 342.51 149.314 342.51 127.71C342.51 106.106 329.564 94.8584 311.924 94.8584Z" fill="#366DF1"/>
<path d="M242.841 159.264H220.832V96.0693H242.275C265.821 96.0693 277.877 103.675 277.877 128.193C277.877 153.115 266.549 159.264 242.841 159.264ZM236.206 123.661L234.749 125.846C242.517 128.355 253.198 129.487 261.694 129.487V127.06C253.198 127.06 243.407 125.684 236.206 123.661Z" fill="white"/>
<path fill-rule="evenodd" clip-rule="evenodd" d="M217.832 162.264V93.0693H242.275C254.237 93.0693 264.036 94.972 270.827 100.633C277.75 106.404 280.877 115.491 280.877 128.193C280.877 141.022 277.968 149.923 271.128 155.414C264.467 160.761 254.773 162.264 242.841 162.264H217.832ZM261.694 127.06C253.198 127.06 243.407 125.684 236.206 123.661L234.749 125.846C235.005 125.929 235.263 126.01 235.524 126.089C236.252 126.31 237.003 126.52 237.773 126.719C244.176 128.37 251.899 129.242 258.694 129.442C259.718 129.473 260.72 129.487 261.694 129.487V127.06ZM242.841 159.264C266.549 159.264 277.877 153.115 277.877 128.193C277.877 103.675 265.821 96.0693 242.275 96.0693H220.832V159.264H242.841Z" fill="#366DF1"/>
<path d="M154.831 127.71C154.831 106.106 167.777 94.8584 185.336 94.8584C202.975 94.8584 215.922 106.106 215.922 127.71C215.922 149.314 202.975 160.562 185.336 160.562C167.777 160.562 154.831 149.395 154.831 127.71ZM175.949 124.393L174.493 126.577C180.643 129.49 188.896 130.218 196.583 130.218V127.791C188.896 127.791 181.533 126.82 175.949 124.393Z" fill="white"/>
<path fill-rule="evenodd" clip-rule="evenodd" d="M161.362 101.077C167.459 94.8887 175.911 91.8584 185.336 91.8584C194.797 91.8584 203.27 94.8865 209.379 101.075C215.491 107.267 218.922 116.302 218.922 127.71C218.922 139.118 215.491 148.153 209.379 154.345C203.27 160.534 194.797 163.562 185.336 163.562C175.917 163.562 167.464 160.555 161.364 154.375C155.26 148.192 151.831 139.156 151.831 127.71C151.831 116.302 155.261 107.268 161.362 101.077ZM196.583 127.791C188.896 127.791 181.533 126.82 175.949 124.393L174.493 126.577C174.633 126.643 174.773 126.708 174.915 126.772C175.691 127.122 176.499 127.439 177.333 127.725C182.191 129.391 187.945 130.025 193.583 130.179C194.589 130.206 195.59 130.218 196.583 130.218V127.791ZM185.336 94.8584C167.777 94.8584 154.831 106.106 154.831 127.71C154.831 149.395 167.777 160.562 185.336 160.562C202.975 160.562 215.922 149.314 215.922 127.71C215.922 106.106 202.975 94.8584 185.336 94.8584Z" fill="#366DF1"/>
<path d="M95.0771 96.0693H153.013V116.703H137.8V159.345H110.289V116.703H95.0771V96.0693Z" fill="white"/>
<path fill-rule="evenodd" clip-rule="evenodd" d="M92.0771 93.0693H156.013V119.703H140.8V162.345H107.289V119.703H92.0771V93.0693ZM110.289 116.703V159.345H137.8V116.703H153.013V96.0693H95.0771V116.703H110.289Z" fill="#366DF1"/>
<path d="M260.815 34.7093L260.814 27.1318H276.208L276.208 34.7093H268.512H260.815ZM260.815 74.3801V37.354H276.208V74.3801H260.815Z" fill="#366DF1"/>
<path fill-rule="evenodd" clip-rule="evenodd" d="M260.815 34.7093L260.814 27.1318H276.208L276.208 34.7093H260.815ZM275.363 33.8641L275.363 27.977H261.66L261.66 33.8641H275.363ZM261.66 38.1992V73.5349H275.363V38.1992H261.66ZM260.815 74.3801H276.208V37.354H260.815V74.3801Z" fill="white"/>
<path d="M214.936 74.3842V37.3581H230.33V42.5119C232.703 39.4603 236.433 36.4766 241.654 36.4766C249.453 36.4766 254.336 41.6304 254.336 49.9714V74.3842H238.942V54.9218C238.942 51.7346 237.043 49.9036 234.738 49.9036C232.432 49.9036 230.33 51.7346 230.33 54.9218V74.3842H214.936Z" fill="#366DF1"/>
<path fill-rule="evenodd" clip-rule="evenodd" d="M230.33 37.3581H214.936V74.3842H230.33V54.9218C230.33 51.7346 232.432 49.9036 234.738 49.9036C237.043 49.9036 238.942 51.7346 238.942 54.9218V74.3842H254.336V49.9714C254.336 41.6304 249.453 36.4766 241.654 36.4766C237.015 36.4766 233.554 38.8317 231.175 41.4972C230.876 41.8319 230.594 42.1715 230.33 42.5119V37.3581ZM253.49 73.539V49.9714C253.49 45.9639 252.32 42.8155 250.304 40.6756C248.294 38.5414 245.361 37.3218 241.654 37.3218C236.791 37.3218 233.281 40.0939 230.997 43.0308L229.484 44.9753V38.2033H215.781V73.539H229.484V54.9218C229.484 51.3087 231.925 49.0584 234.738 49.0584C236.124 49.0584 237.407 49.6134 238.335 50.6552C239.26 51.6933 239.787 53.1603 239.787 54.9218V73.539H253.49Z" fill="white"/>
<path d="M184.708 75.3313C170.535 75.3313 161.38 68.8212 161.38 53.0885L161.38 19.3291H177.519V52.885C177.519 58.7848 180.571 61.2939 184.843 61.2939C189.116 61.2939 192.167 58.9882 192.167 53.2241V19.3291H208.307V52.7494C208.307 68.9568 198.881 75.3313 184.708 75.3313Z" fill="#366DF1"/>
<path fill-rule="evenodd" clip-rule="evenodd" d="M168.065 69.7299C171.998 73.2113 177.689 74.8241 184.708 74.8241C191.728 74.8241 197.488 73.2441 201.488 69.7368C205.475 66.2404 207.8 60.7534 207.8 52.7494V19.8362H192.674V53.2241C192.674 56.1922 191.887 58.3576 190.466 59.7791C189.045 61.2 187.067 61.801 184.843 61.801C182.609 61.801 180.629 61.1426 179.212 59.6512C177.797 58.1629 177.012 55.918 177.012 52.885V19.8362H161.887V53.0885C161.887 60.8552 164.143 66.2586 168.065 69.7299ZM161.38 53.0885C161.38 68.8212 170.535 75.3313 184.708 75.3313C198.881 75.3313 208.307 68.9568 208.307 52.7494V19.3291H192.167V53.2241C192.167 58.9882 189.116 61.2939 184.843 61.2939C180.571 61.2939 177.519 58.7848 177.519 52.885V19.3291H161.38V53.0885Z" fill="white"/>
<path fill-rule="evenodd" clip-rule="evenodd" d="M294.435 6.08319L270.817 31.013L265.69 31.0129L250.731 15.223L255.859 10.3655L268.253 23.4491L289.307 1.22559L294.435 6.08319Z" fill="#FDAF17"/>
<path fill-rule="evenodd" clip-rule="evenodd" d="M289 0.935096L289.598 0.918945L294.725 5.77655L294.741 6.37396L271.124 31.3037L270.817 31.4357L265.69 31.4357L265.383 31.3037L250.425 15.5138L250.441 14.9164L255.569 10.0589L256.166 10.075L268.254 22.8347L289 0.935096ZM289.323 1.82315L268.56 23.7399L267.947 23.7398L255.843 10.9631L251.329 15.2394L265.872 30.5905L270.636 30.5905L293.837 6.09948L289.323 1.82315Z" fill="#366DF1"/>
<defs>
<filter id="filter0_f_1139_14208" x="0.236328" y="16.4297" width="232.194" height="232.193" filterUnits="userSpaceOnUse" color-interpolation-filters="sRGB">
<feFlood flood-opacity="0" result="BackgroundImageFix"/>
<feBlend mode="normal" in="SourceGraphic" in2="BackgroundImageFix" result="shape"/>
<feGaussianBlur stdDeviation="19.5" result="effect1_foregroundBlur_1139_14208"/>
</filter>
</defs>
</svg>
