<svg width="42" height="27" viewBox="0 0 42 27" fill="none" xmlns="http://www.w3.org/2000/svg">
<path d="M31.4053 20.8616C31.4053 17.369 33.4982 15.5508 36.3367 15.5508C39.1883 15.5508 41.2813 17.369 41.2813 20.8616C41.2813 24.3541 39.1883 26.1724 36.3367 26.1724C33.4982 26.1724 31.4053 24.3672 31.4053 20.8616ZM34.8194 20.3253L34.5839 20.6784C35.578 21.1494 36.9123 21.2671 38.155 21.2671V20.8747C36.9123 20.8747 35.7219 20.7177 34.8194 20.3253Z" fill="white"/>
<path fill-rule="evenodd" clip-rule="evenodd" d="M32.4908 16.5854C33.4674 15.5943 34.8224 15.1074 36.337 15.1074C37.8577 15.1074 39.216 15.594 40.1944 16.5851C41.1733 17.5767 41.7253 19.0261 41.7253 20.8619C41.7253 22.6977 41.1733 24.147 40.1944 25.1387C39.216 26.1298 37.8577 26.6164 36.337 26.6164C34.8232 26.6164 33.4681 26.1333 32.4911 25.1436C31.5136 24.1533 30.9619 22.7039 30.9619 20.8619C30.9619 19.0261 31.5138 17.5769 32.4908 16.5854ZM38.1553 20.875C36.9126 20.875 35.7222 20.718 34.8197 20.3256L34.5842 20.6788C34.6068 20.6894 34.6295 20.7 34.6524 20.7103C34.7654 20.7612 34.8825 20.8078 35.0031 20.8503C35.8085 21.1343 36.7714 21.2388 37.7116 21.2621C37.8603 21.2658 38.0084 21.2674 38.1553 21.2674V20.875ZM36.337 15.5511C33.4985 15.5511 31.4056 17.3693 31.4056 20.8619C31.4056 24.3675 33.4985 26.1727 36.337 26.1727C39.1887 26.1727 41.2816 24.3545 41.2816 20.8619C41.2816 17.3693 39.1887 15.5511 36.337 15.5511Z" fill="#366DF1"/>
<path d="M25.1693 25.9627H21.6113V15.7466H25.0777C28.8842 15.7466 30.8333 16.9762 30.8333 20.9397C30.8333 24.9685 29.002 25.9627 25.1693 25.9627ZM24.0967 20.2071L23.8612 20.5603C25.117 20.9658 26.8436 21.1489 28.2171 21.1489V20.7565C26.8436 20.7565 25.2609 20.5341 24.0967 20.2071Z" fill="white"/>
<path fill-rule="evenodd" clip-rule="evenodd" d="M21.168 26.4067V15.3032H25.078C27.0092 15.3032 28.5811 15.6108 29.6674 16.5163C30.7732 17.4382 31.2773 18.8927 31.2773 20.94C31.2773 23.0089 30.808 24.4321 29.7166 25.3083C28.6518 26.1631 27.0974 26.4067 25.1696 26.4067H21.168ZM28.2174 20.7568C26.844 20.7568 25.2612 20.5345 24.097 20.2074L23.8615 20.5606C23.9028 20.5739 23.9445 20.587 23.9868 20.5999C24.0911 20.6316 24.1983 20.6618 24.3081 20.6907C25.3642 20.9682 26.6503 21.1128 27.7738 21.1431C27.9249 21.1472 28.0731 21.1493 28.2174 21.1493V20.7568ZM25.1696 25.963C29.0023 25.963 30.8336 24.9688 30.8336 20.94C30.8336 16.9765 28.8846 15.7469 25.078 15.7469H21.6116V25.963H25.1696Z" fill="#366DF1"/>
<path d="M10.9414 20.8616C10.9414 17.369 13.0343 15.5508 15.8729 15.5508C18.7245 15.5508 20.8174 17.369 20.8174 20.8616C20.8174 24.3541 18.7245 26.1724 15.8729 26.1724C13.0343 26.1724 10.9414 24.3672 10.9414 20.8616ZM14.3555 20.3253L14.12 20.6784C15.1142 21.1494 16.4484 21.2671 17.6911 21.2671V20.8747C16.4484 20.8747 15.2581 20.7177 14.3555 20.3253Z" fill="white"/>
<path fill-rule="evenodd" clip-rule="evenodd" d="M12.026 16.5854C13.0025 15.5943 14.3575 15.1074 15.8722 15.1074C17.3929 15.1074 18.7512 15.594 19.7296 16.5851C20.7085 17.5767 21.2604 19.0261 21.2604 20.8619C21.2604 22.6977 20.7085 24.147 19.7296 25.1387C18.7512 26.1298 17.3929 26.6164 15.8722 26.6164C14.3584 26.6164 13.0032 26.1333 12.0263 25.1436C11.0488 24.1533 10.4971 22.7039 10.4971 20.8619C10.4971 19.0261 11.049 17.5769 12.026 16.5854ZM17.6904 20.875C16.4478 20.875 15.2574 20.718 14.3548 20.3256L14.1194 20.6788C14.1419 20.6894 14.1647 20.7 14.1876 20.7103C14.3005 20.7612 14.4176 20.8078 14.5382 20.8503C15.3437 21.1343 16.3065 21.2388 17.2468 21.2621C17.3955 21.2658 17.5436 21.2674 17.6904 21.2674V20.875ZM15.8722 15.5511C13.0337 15.5511 10.9407 17.3693 10.9407 20.8619C10.9407 24.3675 13.0337 26.1727 15.8722 26.1727C18.7238 26.1727 20.8167 24.3545 20.8167 20.8619C20.8167 17.3693 18.7238 15.5511 15.8722 15.5511Z" fill="#366DF1"/>
<path d="M1.28125 15.7466H10.6471V19.0822H8.1879V25.9758H3.74044V19.0822H1.28125V15.7466Z" fill="white"/>
<path fill-rule="evenodd" clip-rule="evenodd" d="M0.837891 15.3027H11.0911V19.5257H8.63189V26.4193H3.29708V19.5257H0.837891V15.3027ZM3.74075 19.082V25.9756H8.18822V19.082H10.6474V15.7464H1.28156V19.082H3.74075Z" fill="#366DF1"/>
<path d="M28.0743 5.82653L28.0742 4.60156H30.5628L30.5628 5.82653H29.3185H28.0743ZM28.0743 12.2397V6.25407H30.5628V12.2397H28.0743Z" fill="#366DF1"/>
<path fill-rule="evenodd" clip-rule="evenodd" d="M28.0743 5.82653L28.0742 4.60156H30.5628L30.5628 5.82653H28.0743ZM30.4566 5.72036L30.4566 4.70773H28.1804L28.1804 5.72036H30.4566ZM28.1804 6.36024V12.1335H30.4566V6.36024H28.1804ZM28.0743 12.2397H30.5628V6.25407H28.0743V12.2397Z" fill="white"/>
<path d="M20.6582 12.2409V6.25531H23.1467V7.08847C23.5304 6.59515 24.1334 6.11279 24.9775 6.11279C26.2382 6.11279 27.0275 6.94596 27.0275 8.29437V12.2409H24.539V9.09465C24.539 8.5794 24.232 8.28341 23.8593 8.28341C23.4866 8.28341 23.1467 8.5794 23.1467 9.09465V12.2409H20.6582Z" fill="#366DF1"/>
<path fill-rule="evenodd" clip-rule="evenodd" d="M23.1467 6.25531H20.6582V12.2409H23.1467V9.09465C23.1467 8.5794 23.4866 8.28341 23.8593 8.28341C24.232 8.28341 24.539 8.5794 24.539 9.09465V12.2409H27.0275V8.29437C27.0275 6.94596 26.2382 6.11279 24.9775 6.11279C24.2075 6.11279 23.6382 6.51415 23.2529 6.95908C23.2158 7.00192 23.1804 7.04515 23.1467 7.08847V6.25531ZM26.9214 12.1348V8.29437C26.9214 7.64064 26.7303 7.12355 26.398 6.77072C26.0664 6.41861 25.5837 6.21896 24.9775 6.21896C24.1783 6.21896 23.603 6.67473 23.2305 7.15365L23.0406 7.39791V6.36148H20.7644V12.1348H23.0406V9.09465C23.0406 8.52591 23.4229 8.17724 23.8593 8.17724C24.075 8.17724 24.2741 8.26345 24.4182 8.42518C24.5619 8.58644 24.6452 8.81594 24.6452 9.09465V12.1348H26.9214Z" fill="white"/>
<path d="M15.7712 12.3936C13.48 12.3936 12 11.3412 12 8.79783L12 3.34033H14.6091V8.76495C14.6091 9.7187 15.1024 10.1243 15.7931 10.1243C16.4837 10.1243 16.9771 9.75158 16.9771 8.81976V3.34033H19.5862V8.74302C19.5862 11.3631 18.0624 12.3936 15.7712 12.3936Z" fill="#366DF1"/>
<path fill-rule="evenodd" clip-rule="evenodd" d="M13.0686 11.5018C13.709 12.0686 14.6341 12.3299 15.7712 12.3299C16.9085 12.3299 17.8446 12.074 18.4959 11.5029C19.1456 10.9333 19.5225 10.0405 19.5225 8.74302V3.40403H17.0408V8.81976C17.0408 9.29648 16.9144 9.6412 16.6891 9.86651C16.4639 10.0917 16.1494 10.188 15.7931 10.188C15.4354 10.188 15.1207 10.0827 14.8959 9.84617C14.6715 9.61003 14.5454 9.25226 14.5454 8.76495V3.40403H12.0637V8.79783C12.0637 10.057 12.4296 10.9362 13.0686 11.5018ZM12 8.79783C12 11.3412 13.48 12.3936 15.7712 12.3936C18.0624 12.3936 19.5862 11.3631 19.5862 8.74302V3.34033H16.9771V8.81976C16.9771 9.75158 16.4837 10.1243 15.7931 10.1243C15.1024 10.1243 14.6091 9.7187 14.6091 8.76495V3.34033H12V8.79783Z" fill="white"/>
<path fill-rule="evenodd" clip-rule="evenodd" d="M33.5094 1.19885L29.6914 5.229L28.8625 5.22899L26.4443 2.6764L27.2733 1.89114L29.2769 4.00622L32.6805 0.413574L33.5094 1.19885Z" fill="#FDAF17"/>
<path fill-rule="evenodd" clip-rule="evenodd" d="M32.6424 0.377029L32.7174 0.375L33.5463 1.16028L33.5484 1.23532L29.7304 5.26547L29.6918 5.28205L28.8629 5.28204L28.8244 5.26546L26.4062 2.71287L26.4083 2.63783L27.2372 1.85256L27.3123 1.85459L29.2774 3.929L32.6424 0.377029ZM32.6829 0.488583L29.3159 4.04269L29.2389 4.04269L27.2717 1.96614L26.5198 2.6784L28.8858 5.17587L29.669 5.17588L33.4348 1.20085L32.6829 0.488583Z" fill="#366DF1"/>
</svg>
